<mxfile host="app.diagrams.net" modified="2023-08-20T20:44:26.548Z" agent="Mozilla/5.0 (Windows NT 10.0; Win64; x64; rv:109.0) Gecko/20100101 Firefox/116.0" etag="MWokeDnMWv0OOaLDIjNX" version="21.6.6" type="github">
  <diagram id="prtHgNgQTEPvFCAcTncT" name="Page-1">
    <mxGraphModel dx="1434" dy="774" grid="1" gridSize="10" guides="1" tooltips="1" connect="1" arrows="1" fold="1" page="1" pageScale="1" pageWidth="827" pageHeight="1169" math="0" shadow="0">
      <root>
        <mxCell id="0" />
        <mxCell id="1" parent="0" />
        <mxCell id="KfGNjoiaX9yhUuTq-hGN-1" style="edgeStyle=orthogonalEdgeStyle;rounded=0;orthogonalLoop=1;jettySize=auto;html=1;exitX=0.5;exitY=1;exitDx=0;exitDy=0;entryX=0.5;entryY=0;entryDx=0;entryDy=0;" edge="1" parent="1" source="KfGNjoiaX9yhUuTq-hGN-6" target="KfGNjoiaX9yhUuTq-hGN-9">
          <mxGeometry relative="1" as="geometry" />
        </mxCell>
        <mxCell id="KfGNjoiaX9yhUuTq-hGN-2" style="edgeStyle=orthogonalEdgeStyle;rounded=0;orthogonalLoop=1;jettySize=auto;html=1;exitX=0.5;exitY=1;exitDx=0;exitDy=0;entryX=0.5;entryY=0;entryDx=0;entryDy=0;" edge="1" parent="1" source="KfGNjoiaX9yhUuTq-hGN-6" target="KfGNjoiaX9yhUuTq-hGN-14">
          <mxGeometry relative="1" as="geometry" />
        </mxCell>
        <mxCell id="KfGNjoiaX9yhUuTq-hGN-3" style="edgeStyle=orthogonalEdgeStyle;rounded=0;orthogonalLoop=1;jettySize=auto;html=1;exitX=0.5;exitY=1;exitDx=0;exitDy=0;entryX=0.5;entryY=0;entryDx=0;entryDy=0;" edge="1" parent="1" source="KfGNjoiaX9yhUuTq-hGN-6" target="KfGNjoiaX9yhUuTq-hGN-17">
          <mxGeometry relative="1" as="geometry" />
        </mxCell>
        <mxCell id="KfGNjoiaX9yhUuTq-hGN-4" style="edgeStyle=orthogonalEdgeStyle;rounded=0;orthogonalLoop=1;jettySize=auto;html=1;exitX=0.5;exitY=1;exitDx=0;exitDy=0;entryX=0.5;entryY=0;entryDx=0;entryDy=0;" edge="1" parent="1" source="KfGNjoiaX9yhUuTq-hGN-6" target="KfGNjoiaX9yhUuTq-hGN-20">
          <mxGeometry relative="1" as="geometry" />
        </mxCell>
        <mxCell id="KfGNjoiaX9yhUuTq-hGN-6" value="Sistem Informasi Reimbursement" style="rounded=0;whiteSpace=wrap;html=1;" vertex="1" parent="1">
          <mxGeometry x="291" y="20" width="246" height="60" as="geometry" />
        </mxCell>
        <mxCell id="KfGNjoiaX9yhUuTq-hGN-7" style="edgeStyle=orthogonalEdgeStyle;rounded=0;orthogonalLoop=1;jettySize=auto;html=1;exitX=0.5;exitY=1;exitDx=0;exitDy=0;entryX=0;entryY=0.5;entryDx=0;entryDy=0;" edge="1" parent="1" source="KfGNjoiaX9yhUuTq-hGN-9" target="KfGNjoiaX9yhUuTq-hGN-21">
          <mxGeometry relative="1" as="geometry" />
        </mxCell>
        <mxCell id="KfGNjoiaX9yhUuTq-hGN-8" style="edgeStyle=orthogonalEdgeStyle;rounded=0;orthogonalLoop=1;jettySize=auto;html=1;exitX=0.5;exitY=1;exitDx=0;exitDy=0;entryX=0;entryY=0.5;entryDx=0;entryDy=0;" edge="1" parent="1" source="KfGNjoiaX9yhUuTq-hGN-9" target="KfGNjoiaX9yhUuTq-hGN-22">
          <mxGeometry relative="1" as="geometry">
            <Array as="points">
              <mxPoint x="110" y="250" />
              <mxPoint x="70" y="250" />
              <mxPoint x="70" y="390" />
            </Array>
          </mxGeometry>
        </mxCell>
        <mxCell id="KfGNjoiaX9yhUuTq-hGN-9" value="1. Proses Login" style="rounded=0;whiteSpace=wrap;html=1;" vertex="1" parent="1">
          <mxGeometry x="50" y="170" width="120" height="60" as="geometry" />
        </mxCell>
        <mxCell id="KfGNjoiaX9yhUuTq-hGN-10" style="edgeStyle=orthogonalEdgeStyle;rounded=0;orthogonalLoop=1;jettySize=auto;html=1;exitX=0.5;exitY=1;exitDx=0;exitDy=0;entryX=0;entryY=0.5;entryDx=0;entryDy=0;" edge="1" parent="1" source="KfGNjoiaX9yhUuTq-hGN-14" target="KfGNjoiaX9yhUuTq-hGN-23">
          <mxGeometry relative="1" as="geometry" />
        </mxCell>
        <mxCell id="KfGNjoiaX9yhUuTq-hGN-11" style="edgeStyle=orthogonalEdgeStyle;rounded=0;orthogonalLoop=1;jettySize=auto;html=1;exitX=0.5;exitY=1;exitDx=0;exitDy=0;entryX=0;entryY=0.5;entryDx=0;entryDy=0;" edge="1" parent="1" source="KfGNjoiaX9yhUuTq-hGN-14" target="KfGNjoiaX9yhUuTq-hGN-25">
          <mxGeometry relative="1" as="geometry">
            <Array as="points">
              <mxPoint x="320" y="250" />
              <mxPoint x="290" y="250" />
              <mxPoint x="290" y="390" />
            </Array>
          </mxGeometry>
        </mxCell>
        <mxCell id="KfGNjoiaX9yhUuTq-hGN-12" style="edgeStyle=orthogonalEdgeStyle;rounded=0;orthogonalLoop=1;jettySize=auto;html=1;exitX=0.5;exitY=1;exitDx=0;exitDy=0;entryX=0;entryY=0.5;entryDx=0;entryDy=0;" edge="1" parent="1" source="KfGNjoiaX9yhUuTq-hGN-14" target="KfGNjoiaX9yhUuTq-hGN-24">
          <mxGeometry relative="1" as="geometry">
            <Array as="points">
              <mxPoint x="320" y="250" />
              <mxPoint x="290" y="250" />
              <mxPoint x="290" y="490" />
            </Array>
          </mxGeometry>
        </mxCell>
        <mxCell id="KfGNjoiaX9yhUuTq-hGN-13" style="edgeStyle=orthogonalEdgeStyle;rounded=0;orthogonalLoop=1;jettySize=auto;html=1;exitX=0.5;exitY=1;exitDx=0;exitDy=0;entryX=0;entryY=0.5;entryDx=0;entryDy=0;" edge="1" parent="1" source="KfGNjoiaX9yhUuTq-hGN-14" target="KfGNjoiaX9yhUuTq-hGN-26">
          <mxGeometry relative="1" as="geometry">
            <Array as="points">
              <mxPoint x="320" y="250" />
              <mxPoint x="290" y="250" />
              <mxPoint x="290" y="590" />
            </Array>
          </mxGeometry>
        </mxCell>
        <mxCell id="KfGNjoiaX9yhUuTq-hGN-14" value="2. Proses Pengajuan" style="rounded=0;whiteSpace=wrap;html=1;" vertex="1" parent="1">
          <mxGeometry x="260" y="170" width="120" height="60" as="geometry" />
        </mxCell>
        <mxCell id="KfGNjoiaX9yhUuTq-hGN-15" style="edgeStyle=orthogonalEdgeStyle;rounded=0;orthogonalLoop=1;jettySize=auto;html=1;exitX=0.5;exitY=1;exitDx=0;exitDy=0;entryX=0;entryY=0.5;entryDx=0;entryDy=0;" edge="1" parent="1" source="KfGNjoiaX9yhUuTq-hGN-17" target="KfGNjoiaX9yhUuTq-hGN-27">
          <mxGeometry relative="1" as="geometry" />
        </mxCell>
        <mxCell id="KfGNjoiaX9yhUuTq-hGN-16" style="edgeStyle=orthogonalEdgeStyle;rounded=0;orthogonalLoop=1;jettySize=auto;html=1;exitX=0.5;exitY=1;exitDx=0;exitDy=0;entryX=0;entryY=0.5;entryDx=0;entryDy=0;" edge="1" parent="1" source="KfGNjoiaX9yhUuTq-hGN-17" target="KfGNjoiaX9yhUuTq-hGN-28">
          <mxGeometry relative="1" as="geometry">
            <Array as="points">
              <mxPoint x="530" y="250" />
              <mxPoint x="490" y="250" />
              <mxPoint x="490" y="390" />
            </Array>
          </mxGeometry>
        </mxCell>
        <mxCell id="KfGNjoiaX9yhUuTq-hGN-17" value="3. Proses Penyetujuan" style="rounded=0;whiteSpace=wrap;html=1;" vertex="1" parent="1">
          <mxGeometry x="470" y="170" width="120" height="60" as="geometry" />
        </mxCell>
        <mxCell id="KfGNjoiaX9yhUuTq-hGN-18" style="edgeStyle=orthogonalEdgeStyle;rounded=0;orthogonalLoop=1;jettySize=auto;html=1;exitX=0.5;exitY=1;exitDx=0;exitDy=0;entryX=0;entryY=0.5;entryDx=0;entryDy=0;" edge="1" parent="1" source="KfGNjoiaX9yhUuTq-hGN-20" target="KfGNjoiaX9yhUuTq-hGN-29">
          <mxGeometry relative="1" as="geometry" />
        </mxCell>
        <mxCell id="KfGNjoiaX9yhUuTq-hGN-19" style="edgeStyle=orthogonalEdgeStyle;rounded=0;orthogonalLoop=1;jettySize=auto;html=1;exitX=0.5;exitY=1;exitDx=0;exitDy=0;entryX=0;entryY=0.5;entryDx=0;entryDy=0;" edge="1" parent="1" source="KfGNjoiaX9yhUuTq-hGN-20" target="KfGNjoiaX9yhUuTq-hGN-30">
          <mxGeometry relative="1" as="geometry">
            <Array as="points">
              <mxPoint x="740" y="250" />
              <mxPoint x="687" y="250" />
              <mxPoint x="687" y="390" />
            </Array>
          </mxGeometry>
        </mxCell>
        <mxCell id="KfGNjoiaX9yhUuTq-hGN-20" value="4. Proses Notifikasi" style="rounded=0;whiteSpace=wrap;html=1;" vertex="1" parent="1">
          <mxGeometry x="680" y="170" width="120" height="60" as="geometry" />
        </mxCell>
        <mxCell id="KfGNjoiaX9yhUuTq-hGN-21" value="1.1. Masukan username" style="whiteSpace=wrap;html=1;rounded=0;" vertex="1" parent="1">
          <mxGeometry x="90" y="270" width="120" height="60" as="geometry" />
        </mxCell>
        <mxCell id="KfGNjoiaX9yhUuTq-hGN-22" value="1.2. Masukan password" style="whiteSpace=wrap;html=1;rounded=0;" vertex="1" parent="1">
          <mxGeometry x="90" y="360" width="120" height="60" as="geometry" />
        </mxCell>
        <mxCell id="KfGNjoiaX9yhUuTq-hGN-23" value="2.1. Masukan bukti transaksi" style="whiteSpace=wrap;html=1;rounded=0;" vertex="1" parent="1">
          <mxGeometry x="310" y="270" width="120" height="60" as="geometry" />
        </mxCell>
        <mxCell id="KfGNjoiaX9yhUuTq-hGN-24" value="2.3. Masukan signature" style="whiteSpace=wrap;html=1;rounded=0;" vertex="1" parent="1">
          <mxGeometry x="310" y="460" width="120" height="60" as="geometry" />
        </mxCell>
        <mxCell id="KfGNjoiaX9yhUuTq-hGN-25" value="2.2. Masukan detail pengajuan" style="whiteSpace=wrap;html=1;rounded=0;" vertex="1" parent="1">
          <mxGeometry x="310" y="360" width="120" height="60" as="geometry" />
        </mxCell>
        <mxCell id="KfGNjoiaX9yhUuTq-hGN-26" value="2.3. Keluaran Formulir" style="whiteSpace=wrap;html=1;rounded=0;" vertex="1" parent="1">
          <mxGeometry x="310" y="560" width="120" height="60" as="geometry" />
        </mxCell>
        <mxCell id="KfGNjoiaX9yhUuTq-hGN-27" value="3.1. Masukan signature" style="whiteSpace=wrap;html=1;rounded=0;" vertex="1" parent="1">
          <mxGeometry x="510" y="270" width="120" height="60" as="geometry" />
        </mxCell>
        <mxCell id="KfGNjoiaX9yhUuTq-hGN-28" value="3.2. Keluaran Formulir" style="whiteSpace=wrap;html=1;rounded=0;" vertex="1" parent="1">
          <mxGeometry x="510" y="360" width="120" height="60" as="geometry" />
        </mxCell>
        <mxCell id="KfGNjoiaX9yhUuTq-hGN-29" value="4.1 Masukan email user" style="whiteSpace=wrap;html=1;rounded=0;" vertex="1" parent="1">
          <mxGeometry x="707" y="270" width="120" height="60" as="geometry" />
        </mxCell>
        <mxCell id="KfGNjoiaX9yhUuTq-hGN-30" value="4.2. Keluaran notifikasi email" style="whiteSpace=wrap;html=1;rounded=0;" vertex="1" parent="1">
          <mxGeometry x="707" y="360" width="120" height="60" as="geometry" />
        </mxCell>
      </root>
    </mxGraphModel>
  </diagram>
</mxfile>
